<svg width="32" height="33" viewBox="0 0 32 33" fill="none" xmlns="http://www.w3.org/2000/svg">
<g clip-path="url(#clip0)">
<path d="M24 14.016H32L28 8.68262L24 14.016ZM24 19.3493H32L28 24.6826L24 19.3493Z" fill="#D6B1FF"/>
<path d="M1.33333 0.682617H9.33333V32.6826H1.33333C0.979711 32.6826 0.640572 32.5421 0.390523 32.2921C0.140475 32.042 0 31.7029 0 31.3493V2.01595C0 1.66233 0.140475 1.32319 0.390523 1.07314C0.640572 0.823092 0.979711 0.682617 1.33333 0.682617Z" fill="#8C30F5"/>
<path d="M12 0.682617H20C20.3536 0.682617 20.6928 0.823092 20.9428 1.07314C21.1929 1.32319 21.3333 1.66233 21.3333 2.01595V31.3493C21.3333 31.7029 21.1929 32.042 20.9428 32.2921C20.6928 32.5421 20.3536 32.6826 20 32.6826H12V0.682617Z" fill="#2EC5CE"/>
</g>
<defs>
<clipPath id="clip0">
<rect width="32" height="32" fill="white" transform="translate(0 0.682617)"/>
</clipPath>
</defs>
</svg>
