<svg width="46" height="47" viewBox="0 0 46 47" fill="none" xmlns="http://www.w3.org/2000/svg">
<path d="M44.76 41.072C45.016 41.6267 45.144 42.1813 45.144 42.736C45.144 43.7173 44.7387 44.5493 43.928 45.232C43.16 45.9147 42.264 46.256 41.24 46.256C40.5573 46.256 39.9173 46.0853 39.32 45.744C38.7227 45.36 38.2533 44.784 37.912 44.016L34.072 35.44H11.544L7.704 44.016C7.36267 44.784 6.89333 45.36 6.296 45.744C5.69867 46.0853 5.03733 46.256 4.312 46.256C3.33067 46.256 2.43467 45.9147 1.624 45.232C0.813333 44.5493 0.408 43.7173 0.408 42.736C0.408 42.1813 0.536 41.6267 0.792 41.072L18.456 3.12C18.84 2.26666 19.416 1.62666 20.184 1.2C20.9947 0.730665 21.848 0.495998 22.744 0.495998C23.64 0.495998 24.472 0.730665 25.24 1.2C26.0507 1.62666 26.648 2.26666 27.032 3.12L44.76 41.072ZM14.36 29.04H31.256L22.808 10.032L14.36 29.04Z" fill="#E3EBF0"/>
</svg>
