<svg width="55" height="55" viewBox="0 0 55 55" fill="none" xmlns="http://www.w3.org/2000/svg">
<path fill-rule="evenodd" clip-rule="evenodd" d="M37.3332 20.1263C37.3332 22.7343 36.2972 25.2354 34.4531 27.0795C32.6089 28.9236 30.1078 29.9596 27.4998 29.9596C24.8919 29.9596 22.3907 28.9236 20.5466 27.0795C18.7025 25.2354 17.6665 22.7343 17.6665 20.1263C17.6665 17.5183 18.7025 15.0172 20.5466 13.1731C22.3907 11.329 24.8919 10.293 27.4998 10.293C30.1078 10.293 32.6089 11.329 34.4531 13.1731C36.2972 15.0172 37.3332 17.5183 37.3332 20.1263ZM32.4165 20.1263C32.4165 21.4303 31.8985 22.6809 30.9764 23.6029C30.0544 24.525 28.8038 25.043 27.4998 25.043C26.1959 25.043 24.9453 24.525 24.0232 23.6029C23.1012 22.6809 22.5832 21.4303 22.5832 20.1263C22.5832 18.8223 23.1012 17.5717 24.0232 16.6497C24.9453 15.7276 26.1959 15.2096 27.4998 15.2096C28.8038 15.2096 30.0544 15.7276 30.9764 16.6497C31.8985 17.5717 32.4165 18.8223 32.4165 20.1263Z" fill="#8646EF"/>
<path fill-rule="evenodd" clip-rule="evenodd" d="M27.4999 0.458984C12.5655 0.458984 0.458252 12.5663 0.458252 27.5006C0.458252 42.435 12.5655 54.5423 27.4999 54.5423C42.4343 54.5423 54.5416 42.435 54.5416 27.5006C54.5416 12.5663 42.4343 0.458984 27.4999 0.458984ZM5.37492 27.5006C5.37492 32.6386 7.12771 37.3684 10.0654 41.1247C12.1285 38.4154 14.7901 36.2197 17.8422 34.7092C20.8943 33.1988 24.2543 32.4144 27.6597 32.4173C31.0211 32.4141 34.3388 33.1782 37.3601 34.6514C40.3815 36.1246 43.0267 38.268 45.0942 40.9182C47.2242 38.1246 48.6584 34.8639 49.278 31.4059C49.8977 27.948 49.685 24.3922 48.6575 21.0327C47.6301 17.6733 45.8175 14.6068 43.3697 12.087C40.9218 9.56717 37.9091 7.66647 34.5809 6.54215C31.2526 5.41783 27.7044 5.10221 24.23 5.62142C20.7555 6.14062 17.4547 7.47972 14.6005 9.52791C11.7463 11.5761 9.42087 14.2745 7.81661 17.3998C6.21234 20.5252 5.37536 23.9876 5.37492 27.5006ZM27.4999 49.6256C22.4209 49.6333 17.4952 47.886 13.5563 44.6795C15.1417 42.4098 17.252 40.5567 19.7075 39.2777C22.163 37.9988 24.8911 37.332 27.6597 37.334C30.3938 37.3318 33.0889 37.9819 35.5213 39.2304C37.9536 40.4789 40.0531 42.2896 41.6452 44.5123C37.6757 47.823 32.6688 49.6329 27.4999 49.6256Z" fill="#8646EF"/>
</svg>
