<svg width="19" height="19" viewBox="0 0 19 19" fill="none" xmlns="http://www.w3.org/2000/svg">
<g clip-path="url(#clip0)">
<path d="M6.35792 6.07881L8.95142 0.9405C9.00123 0.837132 9.07906 0.749827 9.17605 0.688524C9.27305 0.627221 9.38531 0.594383 9.50005 0.59375C9.71736 0.59375 9.93467 0.708937 10.0522 0.9405L12.6457 6.07881L18.4621 6.90531C18.6071 6.9281 18.7398 7.00021 18.8378 7.10945C18.9358 7.2187 18.9931 7.35841 19 7.505C19.0083 7.6026 18.9945 7.7008 18.9595 7.7923C18.9246 7.8838 18.8694 7.96623 18.7982 8.03344L14.6146 12.0187L15.6002 17.6356C15.6929 18.1616 15.1727 18.5737 14.7144 18.3386L9.50005 15.6596L4.28811 18.3386C4.23359 18.3669 4.17516 18.3869 4.11473 18.3979C3.70861 18.4692 3.32148 18.0963 3.40223 17.6356L4.38786 12.0187L0.205484 8.03344C0.140463 7.97192 0.0887802 7.8977 0.0536443 7.81537C0.0185083 7.73305 0.000668994 7.64438 0.0012337 7.55487C0.00129547 7.42833 0.0362191 7.30425 0.102171 7.19625C0.148957 7.11796 0.212726 7.05117 0.288772 7.00081C0.364819 6.95046 0.451201 6.91782 0.541546 6.90531L6.35792 6.07881ZM9.50005 14.2821C9.5959 14.2817 9.69043 14.3045 9.77555 14.3486L14.1527 16.5977L13.3285 11.8988C13.3091 11.7907 13.3165 11.6795 13.35 11.5749C13.3835 11.4704 13.4422 11.3756 13.5209 11.2991L16.973 8.00969L12.1612 7.32569C12.0616 7.31064 11.9671 7.27167 11.8858 7.2121C11.8045 7.15254 11.7389 7.07416 11.6945 6.98369L9.50123 2.63981L9.50005 2.64338V14.2809V14.2821Z" fill="#BDC02A"/>
</g>
<defs>
<clipPath id="clip0">
<rect width="19" height="19" fill="white"/>
</clipPath>
</defs>
</svg>
