<svg width="308" height="447" viewBox="0 0 308 447" fill="none" xmlns="http://www.w3.org/2000/svg">
<path fill-rule="evenodd" clip-rule="evenodd" d="M209.616 39.032C237.823 50.6397 258.979 73.1229 285.568 88.3534C312.936 104.031 347.342 106.041 368.5 130.044C391.379 155.998 406.325 190.775 406.981 226.087C407.642 261.616 390.615 294.522 372.111 324.312C354.246 353.072 329.461 375.009 302.431 394.402C273.649 415.052 243.975 434.539 209.616 440.898C171.486 447.956 129.339 452.746 95.7024 432.663C62.0377 412.564 47.5811 370.748 30.8324 334.158C15.0912 299.77 -5.0326 263.669 1.14331 226.087C7.17278 189.396 49.3399 171.857 63.1422 137.546C79.8447 96.0255 52.8724 31.8446 89.0767 7.49473C124.526 -16.3473 170.403 22.8953 209.616 39.032Z" fill="#8646EF"/>
</svg>
