<svg width="31" height="31" viewBox="0 0 31 31" fill="none" xmlns="http://www.w3.org/2000/svg">
<path d="M29.7084 15.5L26.5567 11.8962L26.9959 7.13L22.333 6.07083L19.8917 1.9375L15.5001 3.82333L11.1084 1.9375L8.66716 6.05792L4.00425 7.10417L4.44341 11.8833L1.29175 15.5L4.44341 19.1038L4.00425 23.8829L8.66716 24.9421L11.1084 29.0625L15.5001 27.1637L19.8917 29.0496L22.333 24.9292L26.9959 23.87L26.5567 19.1038L29.7084 15.5ZM12.1159 20.6796L9.04175 17.5796C8.92201 17.4601 8.82701 17.3181 8.76219 17.1619C8.69737 17.0056 8.66401 16.8381 8.66401 16.669C8.66401 16.4998 8.69737 16.3323 8.76219 16.176C8.82701 16.0198 8.92201 15.8778 9.04175 15.7583L9.13216 15.6679C9.63591 15.1642 10.4626 15.1642 10.9663 15.6679L13.0459 17.7604L19.698 11.0954C20.2017 10.5917 21.0284 10.5917 21.5322 11.0954L21.6226 11.1858C22.1263 11.6896 22.1263 12.5033 21.6226 13.0071L13.9759 20.6796C13.4463 21.1833 12.6326 21.1833 12.1159 20.6796Z" fill="white"/>
</svg>
