<svg width="963" height="810" viewBox="0 0 963 810" fill="none" xmlns="http://www.w3.org/2000/svg">
<path d="M963 711.922H-82V712.465H963V711.922Z" fill="#EBEBEB"/>
<path d="M858.291 746.908H789.07V747.452H858.291V746.908Z" fill="#EBEBEB"/>
<path d="M610.25 752.824H592.087V753.368H610.25V752.824Z" fill="#EBEBEB"/>
<path d="M786.981 726.729H746.874V727.272H786.981V726.729Z" fill="#EBEBEB"/>
<path d="M117.908 730.381H27.6414V730.924H117.908V730.381Z" fill="#EBEBEB"/>
<path d="M149.76 730.381H136.531V730.924H149.76V730.381Z" fill="#EBEBEB"/>
<path d="M388.563 739.559H192.772V740.102H388.563V739.559Z" fill="#EBEBEB"/>
<path d="M413.33 614.94H9.77189C6.61044 614.934 3.58038 613.623 1.34685 611.295C-0.886667 608.968 -2.14112 605.813 -2.14111 602.523V12.3075C-2.11359 9.03715 -0.846999 5.91016 1.38355 3.60574C3.6141 1.30133 6.62846 0.00560227 9.77189 0H413.33C416.495 0 419.53 1.30813 421.769 3.63663C424.007 5.96512 425.264 9.12323 425.264 12.4162V602.523C425.264 605.816 424.007 608.975 421.769 611.303C419.53 613.632 416.495 614.94 413.33 614.94ZM9.77189 0.434895C6.74902 0.440656 3.85185 1.69405 1.71632 3.91997C-0.419216 6.14589 -1.61862 9.16245 -1.61861 12.3075V602.523C-1.61862 605.669 -0.419216 608.685 1.71632 610.911C3.85185 613.137 6.74902 614.39 9.77189 614.396H413.33C416.355 614.39 419.254 613.138 421.393 610.912C423.532 608.687 424.736 605.671 424.741 602.523V12.3075C424.736 9.16045 423.532 6.14394 421.393 3.91865C419.254 1.69335 416.355 0.440643 413.33 0.434895H9.77189Z" fill="#EBEBEB"/>
<path d="M865.418 614.94H461.839C458.676 614.934 455.643 613.624 453.407 611.297C451.17 608.969 449.911 605.815 449.905 602.523V12.3075C449.938 9.03516 451.209 5.9082 453.443 3.60438C455.677 1.30057 458.694 0.00554118 461.839 0H865.418C868.558 0.011317 871.567 1.30957 873.793 3.61337C876.019 5.91718 877.283 9.0409 877.31 12.3075V602.523C877.31 605.809 876.058 608.96 873.829 611.288C871.6 613.615 868.576 614.928 865.418 614.94ZM461.839 0.434895C458.814 0.440643 455.915 1.69335 453.776 3.91865C451.637 6.14394 450.433 9.16045 450.428 12.3075V602.523C450.433 605.671 451.637 608.687 453.776 610.912C455.915 613.138 458.814 614.39 461.839 614.396H865.418C868.443 614.39 871.342 613.138 873.481 610.912C875.62 608.687 876.824 605.671 876.829 602.523V12.3075C876.824 9.16045 875.62 6.14394 873.481 3.91865C871.342 1.69335 868.443 0.440643 865.418 0.434895H461.839Z" fill="#EBEBEB"/>
<path d="M708.522 708.071C705.596 687.218 692.387 671.105 679.011 672.105C676.533 672.367 674.136 673.168 671.976 674.457C669.815 675.745 667.939 677.493 666.471 679.586C649.751 653.622 626.761 637.662 603.583 639.423C591.874 640.383 580.887 645.693 572.63 654.383C558 615.243 533.045 587.388 509.303 587.388C495.822 587.388 484.913 596.369 477.723 611.307C458.767 584.996 436.236 568.84 414.417 568.84C379.597 568.84 356.754 609.894 354.789 667.604C346.032 678.477 314.327 693.698 310.314 711.855H708.981C708.835 710.659 708.71 709.397 708.522 708.071Z" fill="#F0F0F0"/>
<path d="M421.209 673.801C416.444 674.214 412.306 677.411 409.087 682.499C394.206 652.056 373.056 633.399 351.194 635.487C340.055 636.487 330.023 642.793 321.642 653.035C309.102 607.175 286.446 574.754 264.104 574.754C251.397 574.754 240.884 585.257 233.694 602.805C216.682 571.971 196.074 553.053 175.446 553.053C149.969 553.053 130.553 582.125 121.503 626.854C112.892 613.807 103.007 606.175 93.1837 606.175C79.5778 606.175 69.086 620.896 63.7147 643.924C62.4872 643.929 61.2628 644.053 60.0572 644.293C38.2376 648.12 21.9147 677.911 22.4372 711.941H447.46C444.471 689.457 433.143 672.692 421.209 673.801Z" fill="#F0F0F0"/>
<path d="M673.952 449.789C722.955 437.756 753.304 386.671 741.738 335.687C730.172 284.703 681.071 253.128 632.068 265.161C583.065 277.194 552.716 328.28 564.282 379.263C575.848 430.247 624.949 461.822 673.952 449.789Z" fill="#F5F5F5"/>
<path d="M819.919 159.453C816.512 148.972 805.665 141.818 790.659 141.818C771.201 141.818 751.346 153.865 743.445 169.695C740.354 168.301 737.012 167.612 733.643 167.673C720.372 167.673 706.808 176.827 703.38 188.113C703.064 189.126 702.833 190.167 702.69 191.222H833.42C834.961 188.969 836.159 186.483 836.973 183.851C840.735 171.522 833.232 161.323 819.919 159.453Z" fill="#EBEBEB"/>
<path d="M76.0459 391.404C78.5539 383.62 86.4959 378.357 97.6983 378.357C112.119 378.357 126.812 387.273 132.664 398.993C134.96 397.966 137.438 397.455 139.937 397.493C149.781 397.493 159.813 404.277 162.363 412.714C162.587 413.475 162.755 414.253 162.864 415.041H66.0556C64.9133 413.37 64.0186 411.53 63.4014 409.583C60.6217 400.363 66.1811 392.796 76.0459 391.404Z" fill="#F5F5F5"/>
<path d="M672.009 49.2074C678.236 42.71 686.662 39.0098 695.48 38.9004C706.85 38.9004 714.144 45.9239 713.12 55.1872C715.185 54.4131 717.362 54.0088 719.557 53.9912C727.311 53.9912 731.972 59.3404 730.007 65.929C729.828 66.5606 729.59 67.1724 729.296 67.7556H652.802C652.707 66.2829 652.891 64.805 653.346 63.4067C655.54 56.2527 663.566 50.2729 672.009 49.2074Z" fill="#F5F5F5"/>
<path d="M255.326 69.2363C259.294 65.1359 264.636 62.7973 270.228 62.7129C277.48 62.7129 282.12 67.2141 281.472 73.1069C282.811 72.5977 284.226 72.34 285.652 72.3458C290.584 72.3458 293.552 75.7597 292.277 79.9564C292.145 80.3495 291.992 80.7344 291.817 81.1089H243.099C243.04 80.1817 243.153 79.2513 243.434 78.3691C244.834 73.7375 249.955 69.9321 255.326 69.2363Z" fill="#F5F5F5"/>
<path d="M223.725 247.671C222.761 247.675 221.799 247.733 220.841 247.845C218.939 239.147 210.391 232.993 198.499 232.993C195.272 233.003 192.058 233.42 188.927 234.233C185.854 223.099 174.673 215.445 159.061 215.445C140.021 215.445 120.605 226.84 112.098 242.061C100.499 244.018 89.6516 252.346 86.6211 262.305C86.2968 263.331 86.0659 264.387 85.9314 265.458H239.045V265.328C242.075 255.586 235.178 247.671 223.725 247.671Z" fill="#EBEBEB"/>
<path d="M526.712 492.301L537.789 485.146L548.929 494.605L546.818 711.922H528.761L526.712 492.301Z" fill="#E6E6E6"/>
<path d="M481.359 499.715L470.282 485.146L459.122 494.605L461.233 711.922H479.311L481.359 499.715Z" fill="#E6E6E6"/>
<path d="M413.79 492.301L402.692 485.146L391.552 494.605L393.663 711.922H411.742L413.79 492.301Z" fill="#E6E6E6"/>
<path d="M323.982 499.715L335.059 485.146L346.199 494.605L344.109 711.922H326.031L323.982 499.715Z" fill="#E6E6E6"/>
<path d="M796.991 492.301L808.089 485.146L819.229 494.605L817.118 711.922H799.06L796.991 492.301Z" fill="#E6E6E6"/>
<path d="M751.659 499.715L740.561 485.146L729.421 494.605L731.532 711.922H749.611L751.659 499.715Z" fill="#E6E6E6"/>
<path d="M684.069 492.301L672.992 485.146L661.852 494.605L663.963 711.922H682.021L684.069 492.301Z" fill="#E6E6E6"/>
<path d="M594.282 499.715L605.359 485.146L616.499 494.605L614.388 711.922H596.33L594.282 499.715Z" fill="#E6E6E6"/>
<path d="M316.772 549.749L839.209 550.01L838.729 542.899L316.793 541.682L316.772 549.749Z" fill="#E6E6E6"/>
<path d="M440.5 810.121C664.302 810.121 845.73 799.1 845.73 785.506C845.73 771.911 664.302 760.891 440.5 760.891C216.697 760.891 35.2698 771.911 35.2698 785.506C35.2698 799.1 216.697 810.121 440.5 810.121Z" fill="#F5F5F5"/>
<path d="M608.995 454.703H606.905V493.604H608.995V454.703Z" fill="#407BFF"/>
<path d="M608.995 429.088H606.905V442.135H608.995V429.088Z" fill="#407BFF"/>
<path d="M594.7 72.5176C592.854 72.5176 591.084 73.2805 589.779 74.6384C588.473 75.9964 587.74 77.8381 587.74 79.7586V778.133C587.746 779.069 588.107 779.965 588.745 780.625C589.384 781.285 590.247 781.655 591.147 781.655H598.274C599.174 781.655 600.037 781.285 600.675 780.625C601.314 779.965 601.675 779.069 601.68 778.133V79.7586C601.675 77.8361 600.937 75.9944 599.629 74.6371C598.32 73.2798 596.548 72.5176 594.7 72.5176Z" fill="#407BFF"/>
<path opacity="0.2" d="M587.74 161.41V170.652L594.7 161.41H587.74Z" fill="black"/>
<path opacity="0.2" d="M601.681 236.756V245.997L594.7 236.756H601.681Z" fill="black"/>
<path opacity="0.2" d="M601.681 387.4V396.642L594.7 387.4H601.681Z" fill="black"/>
<path opacity="0.2" d="M587.74 312.078V321.32L594.7 312.078H587.74Z" fill="black"/>
<path d="M594.7 161.411H447.878L433.06 131.468L447.878 101.504H594.7V161.411Z" fill="#407BFF"/>
<path d="M450.428 157.062L437.762 131.469L450.428 105.854H590.52V157.062H450.428Z" fill="white"/>
<path d="M594.7 236.755H667.997L682.794 206.79L667.997 176.826H594.7V236.755Z" fill="#407BFF"/>
<path d="M665.446 232.406L678.112 206.791L665.446 181.176H598.88V232.406H665.446Z" fill="white"/>
<path d="M594.7 312.081H488.967L474.17 282.117L488.967 252.152H594.7V312.081Z" fill="#407BFF"/>
<path d="M491.538 307.73L478.872 282.115L491.538 256.5H590.52V307.73H491.538Z" fill="white"/>
<path d="M594.7 387.403H696.546L711.364 357.439L696.546 327.475H594.7V387.403Z" fill="#407BFF"/>
<path d="M693.996 383.053L706.661 357.438L693.996 331.822H598.88V383.053H693.996Z" fill="white"/>
<path d="M379.284 756.934L394.123 750.324L383.401 712.836L368.562 719.425L379.284 756.934Z" fill="#FFC3BD"/>
<path d="M256.915 764.524H273.049L273.885 725.666H257.751L256.915 764.524Z" fill="#FFC3BD"/>
<path d="M275.244 762.588H255.577C255.256 762.59 254.944 762.704 254.694 762.914C254.443 763.123 254.268 763.415 254.198 763.741L251.021 778.657C250.945 779.021 250.949 779.397 251.033 779.758C251.117 780.12 251.279 780.457 251.507 780.743C251.734 781.03 252.021 781.26 252.346 781.414C252.671 781.569 253.025 781.645 253.383 781.636C259.653 781.636 264.334 781.136 272.297 781.136C277.188 781.136 291.985 781.658 298.756 781.658C305.528 781.658 306.406 774.7 303.647 774.069C291.107 771.242 281.848 767.328 277.856 763.61C277.138 762.943 276.207 762.578 275.244 762.588Z" fill="#263238"/>
<path d="M393.768 748.018L377.842 755.846C377.555 755.994 377.324 756.236 377.184 756.535C377.044 756.834 377.003 757.173 377.069 757.499L380.329 772.416C380.406 772.776 380.561 773.113 380.782 773.402C381.003 773.691 381.284 773.924 381.604 774.083C381.924 774.242 382.275 774.324 382.63 774.321C382.985 774.319 383.334 774.232 383.652 774.068C389.358 771.155 397.488 766.719 404.719 763.196C413.079 759.043 413.414 759.043 423.32 754.172C429.298 751.236 428.106 744.126 425.41 744.778C412.87 747.801 410.634 748.997 397.906 747.518C396.509 747.283 395.076 747.456 393.768 748.018Z" fill="#263238"/>
<path d="M304.253 232.126L310.878 233.844C313.177 234.409 315.455 234.909 317.733 235.366C322.12 236.281 326.55 236.956 331.005 237.388C332.958 237.558 334.92 237.602 336.878 237.519C338.167 237.484 339.449 237.309 340.703 236.997C340.974 236.997 340.953 236.997 340.703 237.236C340.32 237.687 340.041 238.222 339.887 238.802C339.741 239.411 339.887 239.693 339.887 239.563C339.966 239.154 339.966 238.732 339.887 238.323C338.851 234.538 337.243 230.949 335.122 227.69C332.627 223.624 329.927 219.697 327.034 215.926C321.098 208.163 314.494 200.379 307.869 192.942L315.434 183.092C324.361 188.847 332.757 195.449 340.514 202.814C344.551 206.636 348.316 210.756 351.78 215.143C355.886 220.134 359.074 225.869 361.185 232.061C361.845 234.176 362.259 236.366 362.418 238.584C362.612 241.455 362.257 244.338 361.373 247.065C360.336 250.114 358.608 252.859 356.336 255.067C354.452 256.877 352.29 258.347 349.94 259.416C346.482 260.954 342.816 261.93 339.072 262.308C336.011 262.632 332.931 262.733 329.855 262.612C324.241 262.381 318.651 261.705 313.135 260.59C310.46 260.068 307.827 259.459 305.214 258.807C302.602 258.154 300.115 257.459 297.251 256.632L304.253 232.126Z" fill="#FFC3BD"/>
<path d="M281.869 239.192C290.229 225.754 335.478 235.648 335.478 235.648L338.09 276.31C325.834 274.425 313.494 273.184 301.118 272.592C288.348 272.005 271.377 255.892 281.869 239.192Z" fill="#263238"/>
<path d="M310.356 194.573L295.203 186.136L309.833 174.133C311.897 175.479 313.663 177.263 315.018 179.369C316.372 181.475 317.283 183.855 317.692 186.353L310.356 194.573Z" fill="#FFC3BD"/>
<path d="M285.966 177.352L300.742 167.828L309.917 174.134L295.203 186.137L285.966 177.352Z" fill="#FFC3BD"/>
<path opacity="0.2" d="M383.401 712.857L388.919 732.167L374.08 738.777L368.541 719.446L383.401 712.857Z" fill="black"/>
<path opacity="0.2" d="M257.751 725.666H273.885L273.447 745.715H257.312L257.751 725.666Z" fill="black"/>
<path d="M244.04 275.92L224.373 305.428C223.107 307.3 222.381 309.511 222.283 311.799L220.737 350.939C220.626 353.853 221.532 356.711 223.286 358.985L231.834 370.031C232.998 371.499 234.481 372.659 236.159 373.415C237.838 374.171 239.665 374.502 241.49 374.38L267.344 372.901C270.303 372.734 273.087 371.391 275.121 369.149C277.155 366.907 278.284 363.938 278.274 360.855L278.044 282.248C278.042 280.643 277.731 279.054 277.129 277.576C276.528 276.098 275.648 274.76 274.542 273.642C273.435 272.523 272.125 271.646 270.688 271.063C269.25 270.479 267.715 270.201 266.173 270.245L253.173 270.614C251.358 270.691 249.585 271.211 247.998 272.133C246.411 273.055 245.055 274.352 244.04 275.92Z" fill="#407BFF"/>
<path opacity="0.3" d="M244.04 275.92L224.373 305.428C223.107 307.3 222.381 309.511 222.283 311.799L220.737 350.939C220.626 353.853 221.532 356.711 223.286 358.985L231.834 370.031C232.998 371.499 234.481 372.659 236.159 373.415C237.838 374.171 239.665 374.502 241.49 374.38L267.344 372.901C270.303 372.734 273.087 371.391 275.121 369.149C277.155 366.907 278.284 363.938 278.274 360.855L278.044 282.248C278.042 280.643 277.731 279.054 277.129 277.576C276.528 276.098 275.648 274.76 274.542 273.642C273.435 272.523 272.125 271.646 270.688 271.063C269.25 270.479 267.715 270.201 266.173 270.245L253.173 270.614C251.358 270.691 249.585 271.211 247.998 272.133C246.411 273.055 245.055 274.352 244.04 275.92Z" fill="black"/>
<path d="M296.405 224.261L239.495 225.884C233.195 226.063 228.228 231.523 228.401 238.077L228.84 254.771C229.013 261.325 234.26 266.493 240.56 266.314L297.47 264.691C303.77 264.511 308.737 259.052 308.565 252.497L308.125 235.804C307.952 229.249 302.705 224.081 296.405 224.261Z" fill="#407BFF"/>
<path opacity="0.3" d="M296.405 224.261L239.495 225.884C233.195 226.063 228.228 231.523 228.401 238.077L228.84 254.771C229.013 261.325 234.26 266.493 240.56 266.314L297.47 264.691C303.77 264.511 308.737 259.052 308.565 252.497L308.125 235.804C307.952 229.249 302.705 224.081 296.405 224.261Z" fill="black"/>
<path d="M226.359 236.823C230.727 255.038 233.794 273.564 235.534 292.25C236.809 305.297 237.477 317.691 237.833 328.977C238.648 355.375 237.707 375.467 238.334 382.295L324.505 377.946C327.055 246.043 316.647 233.104 316.647 233.104C309.865 231.64 303.004 230.609 296.102 230.017C294.709 229.886 293.225 229.799 291.65 229.756C279.413 229.64 267.18 230.264 255.013 231.626C252.714 231.865 250.373 232.169 248.095 232.496C236.537 234.126 226.359 236.823 226.359 236.823Z" fill="#263238"/>
<path d="M312.717 277.071C291.907 272.249 270.191 273.952 250.31 281.964L248.554 275.679C269.507 267.238 292.395 265.444 314.327 270.526C313.825 272.7 313.261 274.897 312.717 277.071Z" fill="#407BFF"/>
<path opacity="0.2" d="M247.614 261.438C247.505 275.198 243.539 288.627 236.203 300.078C236.015 297.512 235.785 294.924 235.534 292.315C234.572 282.53 233.277 272.375 231.521 262.112L247.614 261.438Z" fill="black"/>
<path d="M298.505 230.169L296.102 229.951C294.639 229.821 293.155 229.734 291.671 229.647C279.434 229.548 267.201 230.18 255.033 231.538C252.714 231.778 250.394 232.082 248.116 232.408H247.969L249.62 235.083C252.17 239.28 260.321 249.173 281.158 251.13L283.248 251.304L284.983 250.282C289.456 247.63 296.708 241.215 298.338 234.387C298.651 233.005 298.707 231.573 298.505 230.169Z" fill="white"/>
<path d="M243.225 162.804C235.095 158.586 225.836 170.741 228.595 178.33C230.649 177.922 232.772 178.128 234.718 178.925C236.664 179.721 238.353 181.076 239.588 182.831C239.588 182.831 234.175 189.746 237.498 197.269C244.103 192.92 250.853 198.922 250.853 198.922C250.062 200.948 249.876 203.175 250.319 205.312C250.763 207.449 251.816 209.398 253.341 210.903C255.096 205.989 261.701 210.425 264.376 206.554C268.744 200.227 263.707 193.508 263.707 193.508L261.889 190.376C260.551 175.372 255.869 169.349 243.225 162.804Z" fill="#263238"/>
<path d="M256.58 188.439C259.485 200.595 262.85 222.927 255.012 231.537C258.273 236.908 266.654 243.084 281.702 244.584C287.052 241.431 294.095 233.712 291.629 229.754C278.337 227.167 278.191 217.012 280.03 207.357L256.58 188.439Z" fill="#FFC3BD"/>
<path d="M297.92 230.603C298.861 238.757 305.695 292.967 323.648 316.147C323.787 316.318 323.972 316.442 324.18 316.502C324.387 316.562 324.608 316.555 324.811 316.482C325.015 316.409 325.193 316.273 325.321 316.093C325.449 315.913 325.522 315.697 325.529 315.473C325.529 310.711 325.529 306.209 325.529 305.405C325.541 305.318 325.541 305.231 325.529 305.144C324.902 302.774 315.748 266.808 314.515 232.256C314.51 232.07 314.46 231.888 314.368 231.728C314.277 231.568 314.147 231.436 313.993 231.343C309.163 229.416 303.953 228.752 298.819 229.407C298.684 229.423 298.554 229.467 298.435 229.536C298.317 229.605 298.213 229.698 298.129 229.81C298.046 229.921 297.984 230.048 297.948 230.185C297.912 230.321 297.903 230.463 297.92 230.603Z" fill="#407BFF"/>
<path opacity="0.2" d="M266.173 196.117L280.03 207.25C279.573 209.498 279.307 211.782 279.236 214.078C274.178 213.578 267.009 208.207 266.215 202.749C265.809 200.56 265.795 198.312 266.173 196.117Z" fill="black"/>
<path d="M285.443 168.371C289.769 168.828 296.102 153.802 288.891 143.06C282.224 133.166 269.078 143.43 267.427 145.235C265.776 147.04 269.914 166.697 285.443 168.371Z" fill="#263238"/>
<path d="M249.056 172.134C253.069 188.247 254.636 197.902 264.125 204.751C278.4 214.949 296.374 203.533 297.063 186.486C297.669 171.156 291.002 147.345 274.429 143.975C270.787 143.218 267.02 143.441 263.484 144.621C259.948 145.8 256.76 147.899 254.22 150.717C251.68 153.536 249.873 156.982 248.97 160.729C248.066 164.477 248.096 168.402 249.056 172.134Z" fill="#FFC3BD"/>
<path d="M255.911 184.961C260.258 185.418 261.742 164.848 259.36 159.651C256.977 154.454 239.149 159.651 237.916 161.825C231.019 174.133 240.403 183.287 255.911 184.961Z" fill="#263238"/>
<path d="M290.898 134.819C290.271 128.6 283.228 125.273 275.704 126.121C275.348 130.709 268.096 134.166 268.096 134.166C265.898 132.346 263.337 131.058 260.6 130.396C257.864 129.734 255.02 129.715 252.275 130.339C252.735 137.298 246.465 142.647 246.465 142.647C246.465 142.647 239.944 139.755 233.277 146.235C238.669 148.887 229.87 154.737 234.782 161.238C240.341 168.61 250.206 164.435 250.206 164.435L254.386 162.13C274.826 159.651 292.591 151.04 290.898 134.819Z" fill="#263238"/>
<path d="M289.372 187.637C286.212 190.003 282.674 191.77 278.922 192.855C278.868 192.872 278.812 192.875 278.756 192.866C278.701 192.857 278.648 192.834 278.602 192.801C278.556 192.768 278.518 192.724 278.49 192.673C278.462 192.622 278.446 192.566 278.442 192.508C278.438 192.378 278.478 192.251 278.554 192.148C278.63 192.045 278.738 191.972 278.86 191.942C282.435 190.887 285.808 189.195 288.829 186.941C288.914 186.858 289.026 186.813 289.142 186.812C289.259 186.813 289.371 186.858 289.456 186.941C289.508 186.985 289.549 187.043 289.574 187.108C289.599 187.173 289.608 187.243 289.6 187.313C289.591 187.383 289.566 187.449 289.526 187.506C289.487 187.562 289.434 187.607 289.372 187.637Z" fill="#263238"/>
<path d="M245.336 189.769C248.101 192.811 251.91 194.593 255.932 194.727C261.262 194.858 262.62 189.574 260.112 185.051C257.792 180.963 252.212 176.005 247.384 178.027C242.556 180.05 241.95 185.986 245.336 189.769Z" fill="#FFC3BD"/>
<path d="M358.53 560.448C350.045 510.001 324.505 377.793 324.505 377.793L267.866 380.707C267.866 380.707 306.74 528.919 317.901 571.886C329.061 614.854 368.061 737.733 368.061 737.733L392.743 725.599C392.743 725.599 367.35 612.918 358.53 560.448Z" fill="#407BFF"/>
<path opacity="0.2" d="M290.835 430.547L282.873 438.071C289.707 464.164 297.816 495.172 304.797 521.831C306.74 491.736 303.187 446.507 290.835 430.547Z" fill="black"/>
<path d="M300.742 379.076C300.742 379.076 289.393 519.503 287.972 568.668C286.404 622.486 281.138 741.821 281.138 741.821H251.585C251.585 741.821 247.05 632.771 246.13 579.845C245.001 520.047 238.418 382.294 238.418 382.294L300.742 379.076Z" fill="#407BFF"/>
<path d="M282.308 742.495H249.871L248.408 731.688L284.941 730.971L282.308 742.495Z" fill="#263238"/>
<path d="M394.499 725.513L366.64 739.234L360.662 729.492L392.43 713.814L394.499 725.513Z" fill="#263238"/>
<path d="M273.697 171.784C273.948 173.111 274.826 173.959 275.662 173.959C276.498 173.959 276.978 172.589 276.728 171.262C276.477 169.936 275.599 169.088 274.763 169.088C273.927 169.088 273.446 170.545 273.697 171.784Z" fill="#263238"/>
<path d="M288.139 168.937C288.39 170.263 289.268 171.111 290.104 171.111C290.94 171.111 291.4 169.72 291.149 168.393C290.898 167.067 290.02 166.219 289.184 166.219C288.348 166.219 287.93 167.61 288.139 168.937Z" fill="#263238"/>
<path d="M283.75 170.525C286.035 174.28 288.806 177.69 291.985 180.658C290.125 183.311 285.861 182.833 285.861 182.833L283.75 170.525Z" fill="#ED847E"/>
<path d="M275.766 164.152C275.632 164.116 275.49 164.119 275.358 164.161C275.225 164.203 275.106 164.283 275.014 164.391C274.393 165.145 273.608 165.736 272.726 166.114C271.843 166.492 270.887 166.647 269.935 166.566C269.736 166.541 269.536 166.597 269.376 166.723C269.216 166.848 269.109 167.034 269.078 167.24C269.06 167.344 269.063 167.451 269.087 167.555C269.11 167.658 269.153 167.756 269.214 167.841C269.274 167.926 269.351 167.998 269.439 168.052C269.527 168.105 269.625 168.14 269.726 168.153C270.936 168.254 272.152 168.052 273.272 167.564C274.392 167.076 275.383 166.316 276.163 165.348C276.236 165.277 276.294 165.191 276.334 165.095C276.373 165 276.394 164.897 276.394 164.793C276.394 164.69 276.373 164.587 276.334 164.491C276.294 164.396 276.236 164.31 276.163 164.239C276.045 164.162 275.904 164.131 275.766 164.152Z" fill="#263238"/>
<path d="M293.531 156.801C293.679 156.756 293.811 156.665 293.907 156.54C293.97 156.457 294.017 156.362 294.045 156.261C294.073 156.159 294.081 156.053 294.07 155.948C294.058 155.843 294.027 155.741 293.977 155.649C293.928 155.556 293.862 155.475 293.782 155.41C292.849 154.601 291.742 154.041 290.555 153.776C289.369 153.51 288.138 153.549 286.968 153.887C286.779 153.957 286.623 154.1 286.534 154.286C286.444 154.473 286.428 154.689 286.488 154.888C286.554 155.084 286.692 155.247 286.871 155.34C287.051 155.433 287.258 155.45 287.449 155.388C288.382 155.146 289.356 155.137 290.292 155.36C291.229 155.583 292.102 156.032 292.841 156.671C292.94 156.744 293.053 156.794 293.172 156.817C293.291 156.84 293.414 156.834 293.531 156.801Z" fill="#263238"/>
<path d="M280.573 765.525C281.676 765.615 282.776 765.308 283.687 764.655C283.988 764.394 284.219 764.057 284.359 763.676C284.498 763.295 284.54 762.883 284.482 762.481C284.485 762.245 284.423 762.014 284.305 761.814C284.187 761.614 284.016 761.453 283.813 761.35C282.036 760.393 276.832 763.72 276.247 764.111C276.184 764.15 276.133 764.209 276.103 764.279C276.073 764.349 276.065 764.428 276.08 764.503C276.089 764.579 276.12 764.65 276.169 764.708C276.217 764.766 276.28 764.808 276.352 764.829C277.729 765.225 279.145 765.458 280.573 765.525ZM282.977 762.046C283.142 762.007 283.313 762.007 283.478 762.046C283.555 762.096 283.616 762.168 283.657 762.252C283.697 762.336 283.715 762.43 283.708 762.524C283.747 762.79 283.719 763.061 283.628 763.313C283.536 763.564 283.384 763.787 283.186 763.959C281.387 764.829 279.334 764.938 277.459 764.264C279.146 763.165 281.019 762.412 282.977 762.046Z" fill="#407BFF"/>
<path d="M276.456 764.914C276.51 764.936 276.57 764.936 276.623 764.914C278.295 763.979 281.535 760.304 281.18 758.391C281.126 758.097 280.976 757.832 280.754 757.642C280.533 757.451 280.255 757.347 279.967 757.347C279.677 757.307 279.382 757.331 279.101 757.417C278.82 757.503 278.56 757.65 278.337 757.847C276.477 759.456 276.08 764.371 276.059 764.501C276.058 764.571 276.074 764.641 276.107 764.702C276.14 764.763 276.189 764.814 276.247 764.849C276.309 764.893 276.382 764.916 276.456 764.914ZM279.696 758.13H279.884C280.365 758.13 280.427 758.434 280.427 758.543C280.636 759.63 278.588 762.414 276.916 763.718C277.035 761.813 277.697 759.989 278.818 758.478C279.061 758.257 279.373 758.133 279.696 758.13Z" fill="#407BFF"/>
<path d="M396.15 749.496C398.721 748.822 403.173 747.322 404.092 745.148C404.254 744.804 404.326 744.422 404.3 744.04C404.274 743.658 404.152 743.29 403.946 742.973C403.851 742.779 403.708 742.614 403.532 742.496C403.355 742.377 403.152 742.31 402.943 742.299C400.727 742.169 396.255 748.105 395.753 748.822C395.707 748.889 395.683 748.969 395.683 749.051C395.683 749.133 395.707 749.212 395.753 749.279C395.785 749.357 395.842 749.422 395.915 749.461C395.987 749.501 396.07 749.513 396.15 749.496ZM402.838 743.147H402.88C402.961 743.155 403.039 743.186 403.105 743.235C403.171 743.285 403.223 743.352 403.256 743.43C403.382 743.626 403.46 743.852 403.482 744.087C403.503 744.323 403.469 744.56 403.382 744.778C402.859 746.061 400.518 747.387 397.112 748.409C398.951 746.104 401.584 743.234 402.88 743.147H402.838Z" fill="#407BFF"/>
<path d="M396.15 749.497C396.199 749.495 396.246 749.483 396.289 749.46C396.333 749.438 396.371 749.406 396.401 749.366C397.801 747.67 399.787 742.669 398.742 741.082C398.491 740.712 397.99 740.364 397.007 740.712C396.645 740.844 396.312 741.051 396.029 741.32C395.745 741.589 395.516 741.915 395.356 742.277C394.227 744.778 395.69 749.062 395.753 749.236C395.777 749.302 395.816 749.36 395.867 749.406C395.918 749.451 395.98 749.483 396.046 749.497H396.15ZM397.697 741.364C397.775 741.349 397.856 741.357 397.93 741.388C398.004 741.419 398.068 741.471 398.115 741.538C398.742 742.495 397.551 746.235 396.255 748.236C395.633 746.431 395.567 744.47 396.067 742.625C396.173 742.355 396.335 742.112 396.541 741.913C396.747 741.714 396.991 741.564 397.258 741.473C397.397 741.411 397.546 741.374 397.697 741.364Z" fill="#407BFF"/>
<path d="M243.246 261.785L238.585 268.439C236.997 270.722 235.45 273.049 233.924 275.376C230.852 280.029 227.905 284.748 225.021 289.466C222.137 294.185 219.524 299.034 216.995 303.861C214.574 308.607 212.383 313.477 210.433 318.452C210.433 318.452 210.433 318.669 210.433 318.648C210.433 318.648 210.433 318.474 210.433 318.648C210.433 318.821 210.433 318.648 210.433 319.039C210.443 319.155 210.443 319.271 210.433 319.387C210.433 319.517 210.433 319.735 210.433 319.909V320.452L210.537 321.105C210.909 323.281 211.504 325.41 212.314 327.454C214.272 332.396 216.57 337.185 219.19 341.784C221.844 346.611 224.791 351.417 227.822 356.201C230.852 360.984 234.092 365.79 237.122 370.443L228.24 379.011C219.314 370.905 211.134 361.951 203.807 352.265C199.956 347.222 196.536 341.838 193.587 336.174C191.929 332.916 190.592 329.492 189.595 325.954L189.198 324.475L188.906 322.844C188.906 322.279 188.718 321.757 188.655 321.17L188.53 319.322C188.452 317.98 188.487 316.634 188.634 315.299C188.709 314.566 188.834 313.839 189.01 313.124L189.261 311.994C189.327 311.684 189.411 311.379 189.512 311.08C193.134 299.045 198.042 287.47 204.142 276.572C207.068 271.201 210.203 266.004 213.484 260.937C215.135 258.393 216.828 255.892 218.563 253.413C220.298 250.935 222.011 248.564 224.039 245.955L243.246 261.785Z" fill="#FFC3BD"/>
<path d="M226.359 236.822C211.164 239.693 197.099 277.876 197.099 277.876L228.135 305.275C228.135 305.275 238.857 285.944 247.489 267.243C256.956 246.89 244.73 233.365 226.359 236.822Z" fill="#263238"/>
<path d="M230.664 368.073L246.903 365.898L240.633 386.338C240.633 386.338 226.421 384.947 226.296 377.01L230.664 368.073Z" fill="#FFC3BD"/>
<path d="M258.503 373.119L252.609 389.753L240.696 386.405L246.903 365.986L258.503 373.119Z" fill="#FFC3BD"/>
<path d="M236.224 235.193C237.979 244.261 245.545 287.75 236.663 322.824C236.651 322.881 236.651 322.941 236.663 322.998C236.656 325.093 236.796 327.186 237.081 329.261C237.11 329.403 237.173 329.536 237.266 329.645C237.359 329.755 237.477 329.838 237.609 329.886C237.742 329.934 237.884 329.946 238.022 329.92C238.16 329.894 238.289 329.832 238.397 329.739C242.765 325.977 258.858 309.843 258.963 275.247C259.067 247.696 254.971 235.584 253.424 231.975C253.258 231.618 252.984 231.328 252.645 231.147C252.305 230.967 251.919 230.906 251.543 230.975L237.687 233.149C237.458 233.175 237.237 233.25 237.038 233.368C236.838 233.487 236.664 233.648 236.527 233.839C236.39 234.031 236.292 234.25 236.24 234.483C236.188 234.716 236.182 234.958 236.224 235.193Z" fill="#407BFF"/>
</svg>