<svg width="32" height="33" viewBox="0 0 32 33" fill="none" xmlns="http://www.w3.org/2000/svg">
<path d="M30.6668 8.68278V3.34945C30.6668 2.99582 30.5264 2.65668 30.2763 2.40664C30.0263 2.15659 29.6871 2.01611 29.3335 2.01611H2.66683C2.31321 2.01611 1.97407 2.15659 1.72402 2.40664C1.47397 2.65668 1.3335 2.99582 1.3335 3.34945V8.68278H30.6668Z" fill="#2EC5CE"/>
<path d="M1.3335 11.3496V30.0163C1.3335 30.3699 1.47397 30.709 1.72402 30.9591C1.97407 31.2091 2.31321 31.3496 2.66683 31.3496H9.3335V11.3496H1.3335Z" fill="#D6B1FF"/>
<path d="M12 31.3496H29.3333C29.687 31.3496 30.0261 31.2091 30.2761 30.9591C30.5262 30.709 30.6667 30.3699 30.6667 30.0163V11.3496H12V31.3496Z" fill="#8C30F5"/>
</svg>
