<svg width="48" height="49" viewBox="0 0 48 49" fill="none" xmlns="http://www.w3.org/2000/svg">
<path d="M20.0002 21.3467H10.6668C10.3132 21.3467 9.97407 21.2062 9.72402 20.9562C9.47397 20.7061 9.3335 20.367 9.3335 20.0133V10.68C9.3335 10.3264 9.47397 9.98725 9.72402 9.7372C9.97407 9.48715 10.3132 9.34668 10.6668 9.34668H20.0002C20.3538 9.34668 20.6929 9.48715 20.943 9.7372C21.193 9.98725 21.3335 10.3264 21.3335 10.68V20.0133C21.3335 20.367 21.193 20.7061 20.943 20.9562C20.6929 21.2062 20.3538 21.3467 20.0002 21.3467Z" fill="#8C30F5"/>
<path d="M20.0002 38.6802H10.6668C10.3132 38.6802 9.97407 38.5397 9.72402 38.2897C9.47397 38.0396 9.3335 37.7005 9.3335 37.3468V28.0135C9.3335 27.6599 9.47397 27.3207 9.72402 27.0707C9.97407 26.8207 10.3132 26.6802 10.6668 26.6802H20.0002C20.3538 26.6802 20.6929 26.8207 20.943 27.0707C21.193 27.3207 21.3335 27.6599 21.3335 28.0135V37.3468C21.3335 37.7005 21.193 38.0396 20.943 38.2897C20.6929 38.5397 20.3538 38.6802 20.0002 38.6802Z" fill="#8C30F5"/>
<path d="M25.3335 10.6802H38.6668V13.3468H25.3335V10.6802Z" fill="#2EC5CE"/>
<path d="M38.6668 28.0132H25.3335V30.6798H38.6668V28.0132Z" fill="#2EC5CE"/>
<path d="M38.6668 34.6802H25.3335V37.3468H38.6668V34.6802Z" fill="#D6B1FF"/>
<path d="M38.6668 17.3467H25.3335V20.0133H38.6668V17.3467Z" fill="#D6B1FF"/>
</svg>
