<svg width="48" height="49" viewBox="0 0 48 49" fill="none" xmlns="http://www.w3.org/2000/svg">
<g clip-path="url(#clip0)">
<path d="M35.9998 40.013H23.9998C23.6462 40.013 23.3071 39.8725 23.057 39.6225C22.807 39.3724 22.6665 39.0333 22.6665 38.6797V36.013C22.6665 35.6594 22.807 35.3203 23.057 35.0702C23.3071 34.8202 23.6462 34.6797 23.9998 34.6797H35.9998C36.3535 34.6797 36.6926 34.8202 36.9426 35.0702C37.1927 35.3203 37.3332 35.6594 37.3332 36.013V38.6797C37.3332 39.0333 37.1927 39.3724 36.9426 39.6225C36.6926 39.8725 36.3535 40.013 35.9998 40.013Z" fill="#D6B1FF"/>
<path d="M35.9998 8.01318H11.9998C11.6462 8.01318 11.3071 8.15366 11.057 8.40371C10.807 8.65376 10.6665 8.99289 10.6665 9.34652V12.0132C10.6665 12.3668 10.807 12.7059 11.057 12.956C11.3071 13.206 11.6462 13.3465 11.9998 13.3465H35.9998C36.3535 13.3465 36.6926 13.206 36.9426 12.956C37.1927 12.7059 37.3332 12.3668 37.3332 12.0132V9.34652C37.3332 8.99289 37.1927 8.65376 36.9426 8.40371C36.6926 8.15366 36.3535 8.01318 35.9998 8.01318Z" fill="#2EC5CE"/>
<path d="M35.9998 16.0132H11.9998C11.6462 16.0132 11.3071 16.1537 11.057 16.4037C10.807 16.6538 10.6665 16.9929 10.6665 17.3465V30.6799C10.6665 31.0335 10.807 31.3726 11.057 31.6227C11.3071 31.8727 11.6462 32.0132 11.9998 32.0132H35.9998C36.3535 32.0132 36.6926 31.8727 36.9426 31.6227C37.1927 31.3726 37.3332 31.0335 37.3332 30.6799V17.3465C37.3332 16.9929 37.1927 16.6538 36.9426 16.4037C36.6926 16.1537 36.3535 16.0132 35.9998 16.0132Z" fill="#8C30F5"/>
</g>
<defs>
<clipPath id="clip0">
<rect width="32" height="32" fill="white" transform="translate(8 8.01318)"/>
</clipPath>
</defs>
</svg>
