<svg width="50" height="61" viewBox="0 0 50 61" fill="none" xmlns="http://www.w3.org/2000/svg">
<path d="M17.6028 52.2705C17.4712 52.1067 17.3396 51.9438 17.2015 51.7924C15.8462 50.3261 13.9766 49.4053 11.9096 49.4053C7.78052 49.4053 4.4314 53.0594 4.4314 57.5653V59.6053C4.4314 60.1675 4.85146 60.6253 5.36658 60.6253H18.4535L17.6028 52.2705Z" fill="#010C17"/>
<path d="M32.3912 52.2705C33.7643 50.5174 35.8021 49.4053 38.0844 49.4053C40.1514 49.4053 42.021 50.3261 43.3754 51.7924C44.7193 53.2701 45.5627 55.3101 45.5627 57.5653V59.6053C45.5627 60.1675 45.1426 60.6253 44.6275 60.6253H31.5405L32.3912 52.2705Z" fill="#010C17"/>
<path d="M0.692383 9.62547V38.1855C0.692383 39.8793 1.94526 41.2455 3.49713 41.2455H46.4971C48.0489 41.2455 49.3018 39.8793 49.3018 38.1855V9.62547L48.3666 8.60547H1.62757L0.692383 9.62547Z" fill="#12A1FB"/>
<path d="M49.3018 6.56488V9.62488H0.692383V6.56488C0.692383 4.87197 1.94526 3.50488 3.49713 3.50488H46.4971C48.0489 3.50488 49.3018 4.87197 49.3018 6.56488Z" fill="#000C13"/>
<path d="M29.6711 40.225C29.6711 43.0424 27.5789 45.325 24.9976 45.325C22.4154 45.325 20.3232 43.0424 20.3232 40.225C20.3232 37.4085 22.4154 35.125 24.9976 35.125C27.5789 35.125 29.6711 37.4085 29.6711 40.225Z" fill="#010D19"/>
<path d="M31.5406 60.6252H18.4537C17.9385 60.6252 17.5193 60.1674 17.5193 59.6052V53.4852C17.5193 48.9793 20.8676 45.3252 24.9975 45.3252C29.1275 45.3252 32.4758 48.9793 32.4758 53.4852V59.6052C32.4758 60.1674 32.0557 60.6252 31.5406 60.6252Z" fill="#010D19"/>
<path d="M16.5841 44.3051C16.5841 47.1225 14.492 49.4051 11.9098 49.4051C9.32852 49.4051 7.23633 47.1225 7.23633 44.3051C7.23633 41.4886 9.32852 39.2051 11.9098 39.2051C14.492 39.2051 16.5841 41.4886 16.5841 44.3051Z" fill="#010C17"/>
<path d="M42.758 44.3051C42.758 47.1225 40.6658 49.4051 38.0845 49.4051C35.5023 49.4051 33.4102 47.1225 33.4102 44.3051C33.4102 41.4886 35.5023 39.2051 38.0845 39.2051C40.6658 39.2051 42.758 41.4886 42.758 44.3051Z" fill="#010C17"/>
<path d="M25.8734 15.2197L28.068 18.6746L31.526 19.6662C32.4246 19.9257 32.7748 21.0847 32.1874 21.8497L29.9635 24.7468L30.1423 28.8586C30.1748 29.6591 29.4379 30.2372 28.7326 29.9619L24.9975 28.5L21.2617 29.9619C20.5572 30.2372 19.8195 29.6591 19.852 28.8586L20.0315 24.7468L17.8077 21.8497C17.2195 21.0847 17.5697 19.9257 18.4683 19.6662L21.9263 18.6746L24.1209 15.2197C24.5409 14.5583 25.4534 14.5583 25.8734 15.2197Z" fill="#FCFCFC"/>
<path d="M8.17071 6.56531C7.65639 6.56531 7.23633 6.10755 7.23633 5.54531V1.46531C7.23633 0.903959 7.65639 0.445312 8.17071 0.445312C8.68583 0.445312 9.1059 0.903959 9.1059 1.46531V5.54531C9.1059 6.10755 8.68583 6.56531 8.17071 6.56531Z" fill="#12A1FB"/>
<path d="M16.584 6.56531C16.0689 6.56531 15.6497 6.10755 15.6497 5.54531V1.46531C15.6497 0.903959 16.0689 0.445312 16.584 0.445312C17.0992 0.445312 17.5192 0.903959 17.5192 1.46531V5.54531C17.5192 6.10755 17.0992 6.56531 16.584 6.56531Z" fill="#12A1FB"/>
<path d="M24.9974 6.56531C24.4823 6.56531 24.0623 6.10755 24.0623 5.54531V1.46531C24.0623 0.903959 24.4823 0.445312 24.9974 0.445312C25.5118 0.445312 25.9318 0.903959 25.9318 1.46531V5.54531C25.9318 6.10755 25.5118 6.56531 24.9974 6.56531Z" fill="#12A1FB"/>
<path d="M33.41 6.56531C32.8956 6.56531 32.4756 6.10755 32.4756 5.54531V1.46531C32.4756 0.903959 32.8956 0.445312 33.41 0.445312C33.9251 0.445312 34.3451 0.903959 34.3451 1.46531V5.54531C34.3451 6.10755 33.9251 6.56531 33.41 6.56531Z" fill="#12A1FB"/>
<path d="M41.8234 6.56531C41.3082 6.56531 40.8882 6.10755 40.8882 5.54531V1.46531C40.8882 0.903959 41.3082 0.445312 41.8234 0.445312C42.3385 0.445312 42.7577 0.903959 42.7577 1.46531V5.54531C42.7577 6.10755 42.3385 6.56531 41.8234 6.56531Z" fill="#12A1FB"/>
</svg>
