<svg width="22" height="24" viewBox="0 0 22 24" fill="none" xmlns="http://www.w3.org/2000/svg">
<g clip-path="url(#clip0)">
<path d="M20.8733 8.03953L14.8655 7.04062L12.1808 0.834844C11.9395 0.280313 11.4687 0 10.9979 0C10.53 0 10.0625 0.276563 9.82031 0.834844L7.13475 7.04016L1.12662 8.03813C0.0491923 8.21625 -0.382599 9.72984 0.398483 10.597L4.74471 15.4252L3.71613 22.2445C3.57001 23.2186 4.25095 24 5.01356 24C5.21591 24 5.42401 23.9452 5.62389 23.8242L10.9987 20.6048L16.3731 23.8252C16.5726 23.9447 16.7803 23.9991 16.9818 23.9991C17.7452 23.9991 18.4274 23.2205 18.2813 22.2459L17.2539 15.4261L21.601 10.5989C22.3825 9.73172 21.9507 8.21766 20.8733 8.03953ZM15.8765 13.8145L15.1327 14.6405L15.3084 15.8067L16.1096 21.1247L11.9177 18.6127L10.9991 18.0623L11.0003 3.19406L13.0949 8.03578L13.5537 9.09656L14.5803 9.26719L19.2688 10.0467L15.8765 13.8145Z" fill="#8646EF"/>
</g>
<defs>
<clipPath id="clip0">
<rect width="22" height="24" fill="white"/>
</clipPath>
</defs>
</svg>
