<svg width="48" height="49" viewBox="0 0 48 49" fill="none" xmlns="http://www.w3.org/2000/svg">
<g clip-path="url(#clip0)">
<path d="M32 21.3465H40L36 16.0132L32 21.3465ZM32 26.6799H40L36 32.0132L32 26.6799Z" fill="#D6B1FF"/>
<path d="M9.33333 8.01318H17.3333V40.0132H9.33333C8.97971 40.0132 8.64057 39.8727 8.39052 39.6227C8.14047 39.3726 8 39.0335 8 38.6799V9.34652C8 8.99289 8.14047 8.65376 8.39052 8.40371C8.64057 8.15366 8.97971 8.01318 9.33333 8.01318Z" fill="#8C30F5"/>
<path d="M20 8.01318H28C28.3536 8.01318 28.6928 8.15366 28.9428 8.40371C29.1929 8.65376 29.3333 8.99289 29.3333 9.34652V38.6799C29.3333 39.0335 29.1929 39.3726 28.9428 39.6227C28.6928 39.8727 28.3536 40.0132 28 40.0132H20V8.01318Z" fill="#2EC5CE"/>
</g>
<defs>
<clipPath id="clip0">
<rect width="32" height="32" fill="white" transform="translate(8 8.01318)"/>
</clipPath>
</defs>
</svg>
