<svg width="48" height="49" viewBox="0 0 48 49" fill="none" xmlns="http://www.w3.org/2000/svg">
<path d="M14.6668 9.34668H10.6668C10.3132 9.34668 9.97407 9.48715 9.72402 9.7372C9.47397 9.98725 9.3335 10.3264 9.3335 10.68V37.3467C9.3335 37.7003 9.47397 38.0394 9.72402 38.2895C9.97407 38.5395 10.3132 38.68 10.6668 38.68H14.6668V9.34668Z" fill="#D6B1FF"/>
<path d="M17.3335 38.68H30.6668V9.34668H17.3335V38.68ZM24.0002 33.3467C23.6465 33.3467 23.3074 33.2062 23.0574 32.9562C22.8073 32.7061 22.6668 32.367 22.6668 32.0133C22.6668 31.6597 22.8073 31.3206 23.0574 31.0705C23.3074 30.8205 23.6465 30.68 24.0002 30.68C24.3538 30.68 24.6929 30.8205 24.943 31.0705C25.193 31.3206 25.3335 31.6597 25.3335 32.0133C25.3335 32.367 25.193 32.7061 24.943 32.9562C24.6929 33.2062 24.3538 33.3467 24.0002 33.3467ZM24.0002 14.68C24.3538 14.68 24.6929 14.8205 24.943 15.0705C25.193 15.3206 25.3335 15.6597 25.3335 16.0133C25.3335 16.367 25.193 16.7061 24.943 16.9562C24.6929 17.2062 24.3538 17.3467 24.0002 17.3467C23.6465 17.3467 23.3074 17.2062 23.0574 16.9562C22.8073 16.7061 22.6668 16.367 22.6668 16.0133C22.6668 15.6597 22.8073 15.3206 23.0574 15.0705C23.3074 14.8205 23.6465 14.68 24.0002 14.68ZM24.0002 22.68C24.3538 22.68 24.6929 22.8205 24.943 23.0705C25.193 23.3206 25.3335 23.6597 25.3335 24.0133C25.3335 24.367 25.193 24.7061 24.943 24.9562C24.6929 25.2062 24.3538 25.3467 24.0002 25.3467C23.6465 25.3467 23.3074 25.2062 23.0574 24.9562C22.8073 24.7061 22.6668 24.367 22.6668 24.0133C22.6668 23.6597 22.8073 23.3206 23.0574 23.0705C23.3074 22.8205 23.6465 22.68 24.0002 22.68Z" fill="#8C30F5"/>
<path d="M37.3335 9.34668H33.3335V38.68H37.3335C37.6871 38.68 38.0263 38.5395 38.2763 38.2895C38.5264 38.0394 38.6668 37.7003 38.6668 37.3467V10.68C38.6668 10.3264 38.5264 9.98725 38.2763 9.7372C38.0263 9.48715 37.6871 9.34668 37.3335 9.34668Z" fill="#2EC5CE"/>
</svg>
