<svg width="353" height="307" viewBox="0 0 353 307" fill="none" xmlns="http://www.w3.org/2000/svg">
<path fill-rule="evenodd" clip-rule="evenodd" d="M176.258 9.30072C194.987 11.0976 214.823 5.33101 232.18 12.1147C249.511 18.8885 256.701 39.203 273.384 47.2618C296.185 58.2758 331.291 48.2872 346.673 67.4211C360.705 84.8771 347.929 111.094 341.554 132.064C335.927 150.576 320.775 164.82 311.796 182.151C304.105 196.995 304.739 216.083 292.058 227.594C279.22 239.247 257.978 237.36 242.208 245.316C227.34 252.817 215.806 264.375 201.765 273.147C182.768 285.014 166.715 303.953 144.012 306.657C122.299 309.243 101.776 296.652 82.2934 287.375C62.0535 277.736 34.8817 270.866 27.1222 250.995C18.4613 228.815 46.3583 205.13 41.1589 182.035C36.447 161.106 2.49457 152.402 0.137283 131.132C-2.06447 111.265 22.8476 97.39 29.6796 78.4547C37.5842 56.5465 25.6598 27.0203 43.5056 10.9342C61.1171 -4.94066 91.1476 1.2389 115.677 0.937067C136.266 0.683726 155.776 7.33566 176.258 9.30072Z" fill="url(#paint0_linear)"/>
<defs>
<linearGradient id="paint0_linear" x1="55.5" y1="50.5" x2="313" y2="197" gradientUnits="userSpaceOnUse">
<stop stop-color="#9757FF"/>
<stop offset="1" stop-color="#52A8DE"/>
</linearGradient>
</defs>
</svg>
