<svg width="381" height="290" viewBox="0 0 381 290" fill="none" xmlns="http://www.w3.org/2000/svg">
<path fill-rule="evenodd" clip-rule="evenodd" d="M183.616 39.032C211.823 50.6397 232.979 73.1229 259.568 88.3534C286.936 104.031 321.342 106.041 342.5 130.044C365.379 155.998 380.325 190.775 380.981 226.087C381.642 261.616 364.615 294.522 346.111 324.312C328.246 353.072 303.461 375.009 276.431 394.402C247.649 415.052 217.975 434.539 183.616 440.898C145.486 447.956 103.339 452.746 69.7024 432.663C36.0377 412.564 21.5811 370.748 4.83243 334.158C-10.9088 299.77 -31.0326 263.669 -24.8567 226.087C-18.8272 189.396 23.3399 171.857 37.1422 137.546C53.8447 96.0255 26.8724 31.8446 63.0767 7.49473C98.5259 -16.3473 144.403 22.8953 183.616 39.032Z" fill="#8646EF"/>
</svg>
