<svg width="32" height="33" viewBox="0 0 32 33" fill="none" xmlns="http://www.w3.org/2000/svg">
<g clip-path="url(#clip0)">
<path d="M27.9998 32.013H15.9998C15.6462 32.013 15.3071 31.8725 15.057 31.6225C14.807 31.3724 14.6665 31.0333 14.6665 30.6797V28.013C14.6665 27.6594 14.807 27.3203 15.057 27.0702C15.3071 26.8202 15.6462 26.6797 15.9998 26.6797H27.9998C28.3535 26.6797 28.6926 26.8202 28.9426 27.0702C29.1927 27.3203 29.3332 27.6594 29.3332 28.013V30.6797C29.3332 31.0333 29.1927 31.3724 28.9426 31.6225C28.6926 31.8725 28.3535 32.013 27.9998 32.013Z" fill="#D6B1FF"/>
<path d="M27.9998 0.0131836H3.99984C3.64622 0.0131836 3.30708 0.153658 3.05703 0.403707C2.80698 0.653755 2.6665 0.992895 2.6665 1.34652V4.01318C2.6665 4.36681 2.80698 4.70595 3.05703 4.95599C3.30708 5.20604 3.64622 5.34652 3.99984 5.34652H27.9998C28.3535 5.34652 28.6926 5.20604 28.9426 4.95599C29.1927 4.70595 29.3332 4.36681 29.3332 4.01318V1.34652C29.3332 0.992895 29.1927 0.653755 28.9426 0.403707C28.6926 0.153658 28.3535 0.0131836 27.9998 0.0131836Z" fill="#2EC5CE"/>
<path d="M27.9998 8.01318H3.99984C3.64622 8.01318 3.30708 8.15366 3.05703 8.40371C2.80698 8.65376 2.6665 8.99289 2.6665 9.34652V22.6799C2.6665 23.0335 2.80698 23.3726 3.05703 23.6227C3.30708 23.8727 3.64622 24.0132 3.99984 24.0132H27.9998C28.3535 24.0132 28.6926 23.8727 28.9426 23.6227C29.1927 23.3726 29.3332 23.0335 29.3332 22.6799V9.34652C29.3332 8.99289 29.1927 8.65376 28.9426 8.40371C28.6926 8.15366 28.3535 8.01318 27.9998 8.01318Z" fill="#8C30F5"/>
</g>
<defs>
<clipPath id="clip0">
<rect width="32" height="32" fill="white" transform="translate(0 0.0131836)"/>
</clipPath>
</defs>
</svg>
