<?xml version="1.0" encoding="UTF-8"?>
<svg xmlns="http://www.w3.org/2000/svg" xmlns:xlink="http://www.w3.org/1999/xlink" width="375pt" height="374.999991pt" viewBox="0 0 375 374.999991" version="1.2">
<defs>
<clipPath id="clip1">
  <path d="M 88 270 L 157 270 L 157 320.40625 L 88 320.40625 Z M 88 270 "/>
</clipPath>
<clipPath id="clip2">
  <path d="M 218 270 L 287 270 L 287 320.40625 L 218 320.40625 Z M 218 270 "/>
</clipPath>
<clipPath id="clip3">
  <path d="M 70.488281 90 L 304.488281 90 L 304.488281 235 L 70.488281 235 Z M 70.488281 90 "/>
</clipPath>
<clipPath id="clip4">
  <path d="M 70.488281 68 L 304.488281 68 L 304.488281 96 L 70.488281 96 Z M 70.488281 68 "/>
</clipPath>
<clipPath id="clip5">
  <path d="M 151 252 L 224 252 L 224 320.40625 L 151 320.40625 Z M 151 252 "/>
</clipPath>
<clipPath id="clip6">
  <path d="M 102 54.90625 L 112 54.90625 L 112 82 L 102 82 Z M 102 54.90625 "/>
</clipPath>
<clipPath id="clip7">
  <path d="M 142 54.90625 L 152 54.90625 L 152 82 L 142 82 Z M 142 54.90625 "/>
</clipPath>
<clipPath id="clip8">
  <path d="M 182 54.90625 L 192 54.90625 L 192 82 L 182 82 Z M 182 54.90625 "/>
</clipPath>
<clipPath id="clip9">
  <path d="M 223 54.90625 L 233 54.90625 L 233 82 L 223 82 Z M 223 54.90625 "/>
</clipPath>
<clipPath id="clip10">
  <path d="M 263 54.90625 L 273 54.90625 L 273 82 L 263 82 Z M 263 54.90625 "/>
</clipPath>
</defs>
<g id="surface1">
<g clip-path="url(#clip1)" clip-rule="nonzero">
<path style=" stroke:none;fill-rule:nonzero;fill:rgb(18.429565%,32.548523%,46.669006%);fill-opacity:1;" d="M 151.9375 283.546875 C 151.304688 282.824219 150.671875 282.105469 150.007812 281.4375 C 143.492188 274.96875 134.503906 270.90625 124.566406 270.90625 C 104.714844 270.90625 88.613281 287.027344 88.613281 306.90625 L 88.613281 315.90625 C 88.613281 318.386719 90.632812 320.40625 93.109375 320.40625 L 156.027344 320.40625 L 151.9375 283.546875 "/>
</g>
<g clip-path="url(#clip2)" clip-rule="nonzero">
<path style=" stroke:none;fill-rule:nonzero;fill:rgb(18.429565%,32.548523%,46.669006%);fill-opacity:1;" d="M 223.035156 283.546875 C 229.636719 275.8125 239.433594 270.90625 250.40625 270.90625 C 260.34375 270.90625 269.332031 274.96875 275.84375 281.4375 C 282.304688 287.957031 286.359375 296.957031 286.359375 306.90625 L 286.359375 315.90625 C 286.359375 318.386719 284.339844 320.40625 281.863281 320.40625 L 218.945312 320.40625 L 223.035156 283.546875 "/>
</g>
<g clip-path="url(#clip3)" clip-rule="nonzero">
<path style=" stroke:none;fill-rule:nonzero;fill:rgb(25.489807%,61.178589%,83.918762%);fill-opacity:1;" d="M 70.636719 95.40625 L 70.636719 221.40625 C 70.636719 228.878906 76.660156 234.90625 84.121094 234.90625 L 290.851562 234.90625 C 298.3125 234.90625 304.335938 228.878906 304.335938 221.40625 L 304.335938 95.40625 L 299.839844 90.90625 L 75.132812 90.90625 L 70.636719 95.40625 "/>
</g>
<g clip-path="url(#clip4)" clip-rule="nonzero">
<path style=" stroke:none;fill-rule:nonzero;fill:rgb(12.159729%,22.349548%,28.239441%);fill-opacity:1;" d="M 304.335938 81.90625 L 304.335938 95.40625 L 70.636719 95.40625 L 70.636719 81.90625 C 70.636719 74.4375 76.660156 68.40625 84.121094 68.40625 L 290.851562 68.40625 C 298.3125 68.40625 304.335938 74.4375 304.335938 81.90625 "/>
</g>
<path style=" stroke:none;fill-rule:nonzero;fill:rgb(7.058716%,20.388794%,33.729553%);fill-opacity:1;" d="M 209.957031 230.40625 C 209.957031 242.835938 199.898438 252.90625 187.488281 252.90625 C 175.074219 252.90625 165.015625 242.835938 165.015625 230.40625 C 165.015625 217.980469 175.074219 207.90625 187.488281 207.90625 C 199.898438 207.90625 209.957031 217.980469 209.957031 230.40625 "/>
<g clip-path="url(#clip5)" clip-rule="nonzero">
<path style=" stroke:none;fill-rule:nonzero;fill:rgb(7.058716%,20.388794%,33.729553%);fill-opacity:1;" d="M 218.945312 320.40625 L 156.027344 320.40625 C 153.550781 320.40625 151.535156 318.386719 151.535156 315.90625 L 151.535156 288.90625 C 151.535156 269.027344 167.632812 252.90625 187.488281 252.90625 C 207.34375 252.90625 223.441406 269.027344 223.441406 288.90625 L 223.441406 315.90625 C 223.441406 318.386719 221.421875 320.40625 218.945312 320.40625 "/>
</g>
<path style=" stroke:none;fill-rule:nonzero;fill:rgb(18.429565%,32.548523%,46.669006%);fill-opacity:1;" d="M 147.039062 248.40625 C 147.039062 260.835938 136.980469 270.90625 124.566406 270.90625 C 112.15625 270.90625 102.097656 260.835938 102.097656 248.40625 C 102.097656 235.980469 112.15625 225.90625 124.566406 225.90625 C 136.980469 225.90625 147.039062 235.980469 147.039062 248.40625 "/>
<path style=" stroke:none;fill-rule:nonzero;fill:rgb(18.429565%,32.548523%,46.669006%);fill-opacity:1;" d="M 272.875 248.40625 C 272.875 260.835938 262.816406 270.90625 250.40625 270.90625 C 237.992188 270.90625 227.933594 260.835938 227.933594 248.40625 C 227.933594 235.980469 237.992188 225.90625 250.40625 225.90625 C 262.816406 225.90625 272.875 235.980469 272.875 248.40625 "/>
<path style=" stroke:none;fill-rule:nonzero;fill:rgb(87.838745%,100%,97.24884%);fill-opacity:1;" d="M 191.699219 120.085938 L 202.25 135.328125 L 218.875 139.703125 C 223.195312 140.847656 224.878906 145.960938 222.054688 149.335938 L 211.363281 162.117188 L 212.222656 180.257812 C 212.378906 183.789062 208.835938 186.339844 205.445312 185.125 L 187.488281 178.675781 L 169.527344 185.125 C 166.140625 186.339844 162.59375 183.789062 162.75 180.257812 L 163.613281 162.117188 L 152.921875 149.335938 C 150.09375 145.960938 151.777344 140.847656 156.097656 139.703125 L 172.722656 135.328125 L 183.273438 120.085938 C 185.292969 117.167969 189.679688 117.167969 191.699219 120.085938 "/>
<g clip-path="url(#clip6)" clip-rule="nonzero">
<path style=" stroke:none;fill-rule:nonzero;fill:rgb(25.489807%,61.178589%,83.918762%);fill-opacity:1;" d="M 106.589844 81.90625 C 104.117188 81.90625 102.097656 79.886719 102.097656 77.40625 L 102.097656 59.40625 C 102.097656 56.929688 104.117188 54.90625 106.589844 54.90625 C 109.066406 54.90625 111.085938 56.929688 111.085938 59.40625 L 111.085938 77.40625 C 111.085938 79.886719 109.066406 81.90625 106.589844 81.90625 "/>
</g>
<g clip-path="url(#clip7)" clip-rule="nonzero">
<path style=" stroke:none;fill-rule:nonzero;fill:rgb(25.489807%,61.178589%,83.918762%);fill-opacity:1;" d="M 147.039062 81.90625 C 144.5625 81.90625 142.546875 79.886719 142.546875 77.40625 L 142.546875 59.40625 C 142.546875 56.929688 144.5625 54.90625 147.039062 54.90625 C 149.515625 54.90625 151.535156 56.929688 151.535156 59.40625 L 151.535156 77.40625 C 151.535156 79.886719 149.515625 81.90625 147.039062 81.90625 "/>
</g>
<g clip-path="url(#clip8)" clip-rule="nonzero">
<path style=" stroke:none;fill-rule:nonzero;fill:rgb(25.489807%,61.178589%,83.918762%);fill-opacity:1;" d="M 187.488281 81.90625 C 185.011719 81.90625 182.992188 79.886719 182.992188 77.40625 L 182.992188 59.40625 C 182.992188 56.929688 185.011719 54.90625 187.488281 54.90625 C 189.960938 54.90625 191.980469 56.929688 191.980469 59.40625 L 191.980469 77.40625 C 191.980469 79.886719 189.960938 81.90625 187.488281 81.90625 "/>
</g>
<g clip-path="url(#clip9)" clip-rule="nonzero">
<path style=" stroke:none;fill-rule:nonzero;fill:rgb(25.489807%,61.178589%,83.918762%);fill-opacity:1;" d="M 227.933594 81.90625 C 225.460938 81.90625 223.441406 79.886719 223.441406 77.40625 L 223.441406 59.40625 C 223.441406 56.929688 225.460938 54.90625 227.933594 54.90625 C 230.410156 54.90625 232.429688 56.929688 232.429688 59.40625 L 232.429688 77.40625 C 232.429688 79.886719 230.410156 81.90625 227.933594 81.90625 "/>
</g>
<g clip-path="url(#clip10)" clip-rule="nonzero">
<path style=" stroke:none;fill-rule:nonzero;fill:rgb(25.489807%,61.178589%,83.918762%);fill-opacity:1;" d="M 268.382812 81.90625 C 265.90625 81.90625 263.886719 79.886719 263.886719 77.40625 L 263.886719 59.40625 C 263.886719 56.929688 265.90625 54.90625 268.382812 54.90625 C 270.859375 54.90625 272.875 56.929688 272.875 59.40625 L 272.875 77.40625 C 272.875 79.886719 270.859375 81.90625 268.382812 81.90625 "/>
</g>
</g>
</svg>
