<svg width="45" height="45" viewBox="0 0 70 70" fill="none" xmlns="http://www.w3.org/2000/svg">
<path d="M45.9375 4.375C42.8632 4.3743 39.8314 5.09374 37.0852 6.47568C34.339 7.85761 31.9547 9.86362 30.1233 12.3329C28.292 14.8023 27.0645 17.6662 26.5392 20.6954C26.014 23.7245 26.2056 26.8345 27.0987 29.7763L4.375 52.5V65.625H17.5L40.2238 42.9012C42.9317 43.7232 45.785 43.9517 48.5892 43.5712C51.3934 43.1907 54.0826 42.2102 56.4736 40.6963C58.8646 39.1825 60.9011 37.171 62.4444 34.799C63.9876 32.4269 65.0014 29.75 65.4166 26.9507C65.8317 24.1514 65.6385 21.2955 64.8501 18.5777C64.0617 15.8598 62.6966 13.3438 60.8479 11.2012C58.9992 9.05863 56.7104 7.33977 54.1373 6.16177C51.5642 4.98378 48.7674 4.37434 45.9375 4.375ZM45.9375 39.375C44.4314 39.3742 42.9337 39.1516 41.4925 38.7144L38.9834 37.9531L37.1306 39.8059L30.1722 46.7644L27.1556 43.75L24.0625 46.8431L27.0791 49.8597L23.6097 53.3291L20.5931 50.3125L17.5 53.4056L20.5166 56.4222L15.6888 61.25H8.75V54.3112L30.1919 32.8694L32.0469 31.0166L31.2856 28.5075C30.3506 25.4253 30.4114 22.1267 31.4592 19.0811C32.507 16.0354 34.4886 13.3976 37.122 11.5431C39.7554 9.68849 42.9065 8.71154 46.1271 8.75116C49.3478 8.79078 52.4739 9.84497 55.0609 11.7638C57.6479 13.6826 59.5639 16.3682 60.5365 19.4388C61.5091 22.5093 61.4887 25.8084 60.4781 28.8667C59.4676 31.9249 57.5184 34.5867 54.9079 36.4733C52.2974 38.3599 49.1584 39.3753 45.9375 39.375Z" fill="black"/>
<path d="M48.125 26.25C50.5412 26.25 52.5 24.2912 52.5 21.875C52.5 19.4588 50.5412 17.5 48.125 17.5C45.7088 17.5 43.75 19.4588 43.75 21.875C43.75 24.2912 45.7088 26.25 48.125 26.25Z" fill="black"/>
</svg>
