<svg width="78" height="85" viewBox="0 0 78 85" fill="none" xmlns="http://www.w3.org/2000/svg">
<path d="M31.6028 64.2705C31.4712 64.1067 31.3396 63.9438 31.2015 63.7924C29.8462 62.3261 27.9766 61.4053 25.9096 61.4053C21.7805 61.4053 18.4314 65.0594 18.4314 69.5653V71.6053C18.4314 72.1675 18.8515 72.6253 19.3666 72.6253H32.4535L31.6028 64.2705Z" fill="#2F5377"/>
<path d="M46.3912 64.2705C47.7643 62.5174 49.8021 61.4053 52.0844 61.4053C54.1514 61.4053 56.021 62.3261 57.3754 63.7924C58.7193 65.2701 59.5627 67.3101 59.5627 69.5653V71.6053C59.5627 72.1675 59.1426 72.6253 58.6275 72.6253H45.5405L46.3912 64.2705Z" fill="#2F5377"/>
<path d="M14.6924 21.6255V50.1855C14.6924 51.8793 15.9453 53.2455 17.4971 53.2455H60.4971C62.0489 53.2455 63.3018 51.8793 63.3018 50.1855V21.6255L62.3666 20.6055H15.6276L14.6924 21.6255Z" fill="#419CD6"/>
<path d="M63.3018 18.5654V21.6254H14.6924V18.5654C14.6924 16.8725 15.9453 15.5054 17.4971 15.5054H60.4971C62.0489 15.5054 63.3018 16.8725 63.3018 18.5654Z" fill="#1F3948"/>
<path d="M43.6711 52.2255C43.6711 55.0429 41.5789 57.3255 38.9976 57.3255C36.4154 57.3255 34.3232 55.0429 34.3232 52.2255C34.3232 49.409 36.4154 47.1255 38.9976 47.1255C41.5789 47.1255 43.6711 49.409 43.6711 52.2255Z" fill="#123456"/>
<path d="M45.5406 72.6252H32.4537C31.9385 72.6252 31.5193 72.1674 31.5193 71.6052V65.4852C31.5193 60.9793 34.8676 57.3252 38.9975 57.3252C43.1275 57.3252 46.4758 60.9793 46.4758 65.4852V71.6052C46.4758 72.1674 46.0557 72.6252 45.5406 72.6252Z" fill="#123456"/>
<path d="M30.5841 56.3051C30.5841 59.1225 28.492 61.4051 25.9098 61.4051C23.3285 61.4051 21.2363 59.1225 21.2363 56.3051C21.2363 53.4886 23.3285 51.2051 25.9098 51.2051C28.492 51.2051 30.5841 53.4886 30.5841 56.3051Z" fill="#2F5377"/>
<path d="M56.758 56.3051C56.758 59.1225 54.6658 61.4051 52.0845 61.4051C49.5023 61.4051 47.4102 59.1225 47.4102 56.3051C47.4102 53.4886 49.5023 51.2051 52.0845 51.2051C54.6658 51.2051 56.758 53.4886 56.758 56.3051Z" fill="#2F5377"/>
<path d="M39.8734 27.2192L42.068 30.6741L45.526 31.6658C46.4246 31.9252 46.7748 33.0842 46.1874 33.8492L43.9635 36.7463L44.1423 40.8582C44.1748 41.6586 43.4379 42.2367 42.7326 41.9614L38.9975 40.4996L35.2617 41.9614C34.5572 42.2367 33.8195 41.6586 33.852 40.8582L34.0315 36.7463L31.8077 33.8492C31.2195 33.0842 31.5697 31.9252 32.4683 31.6658L35.9263 30.6741L38.1209 27.2192C38.5409 26.5578 39.4534 26.5578 39.8734 27.2192Z" fill="#E0FFF8"/>
<path d="M22.1707 18.5653C21.6564 18.5653 21.2363 18.1076 21.2363 17.5453V13.4653C21.2363 12.904 21.6564 12.4453 22.1707 12.4453C22.6858 12.4453 23.1059 12.904 23.1059 13.4653V17.5453C23.1059 18.1076 22.6858 18.5653 22.1707 18.5653Z" fill="#419CD6"/>
<path d="M30.584 18.5653C30.0689 18.5653 29.6497 18.1076 29.6497 17.5453V13.4653C29.6497 12.904 30.0689 12.4453 30.584 12.4453C31.0992 12.4453 31.5192 12.904 31.5192 13.4653V17.5453C31.5192 18.1076 31.0992 18.5653 30.584 18.5653Z" fill="#419CD6"/>
<path d="M38.9974 18.5653C38.4823 18.5653 38.0623 18.1076 38.0623 17.5453V13.4653C38.0623 12.904 38.4823 12.4453 38.9974 12.4453C39.5118 12.4453 39.9318 12.904 39.9318 13.4653V17.5453C39.9318 18.1076 39.5118 18.5653 38.9974 18.5653Z" fill="#419CD6"/>
<path d="M47.4102 18.5653C46.8959 18.5653 46.4758 18.1076 46.4758 17.5453V13.4653C46.4758 12.904 46.8959 12.4453 47.4102 12.4453C47.9253 12.4453 48.3454 12.904 48.3454 13.4653V17.5453C48.3454 18.1076 47.9253 18.5653 47.4102 18.5653Z" fill="#419CD6"/>
<path d="M55.8236 18.5653C55.3085 18.5653 54.8884 18.1076 54.8884 17.5453V13.4653C54.8884 12.904 55.3085 12.4453 55.8236 12.4453C56.3387 12.4453 56.758 12.904 56.758 13.4653V17.5453C56.758 18.1076 56.3387 18.5653 55.8236 18.5653Z" fill="#419CD6"/>
</svg>
