<svg width="83" height="88" viewBox="0 0 83 88" fill="none" xmlns="http://www.w3.org/2000/svg">
<g opacity="0.3">
<path fill-rule="evenodd" clip-rule="evenodd" d="M82.636 14.5148C70.259 22.0304 64.0706 30.8611 64.0706 41.0071C69.346 41.7587 73.7084 44.4204 77.1577 48.9924C80.607 53.5644 82.3316 58.8565 82.3316 64.869C82.3316 71.2572 80.6577 76.6433 77.3099 81.0274C73.962 85.4115 69.7518 87.6035 64.6793 87.6035C58.998 87.6035 54.0777 84.7539 49.9182 79.0546C45.7587 73.3553 43.679 66.4348 43.679 58.2929C43.679 33.8672 54.737 14.7654 76.8533 0.986816L82.636 14.5148ZM38.957 14.5148C26.4785 22.0304 20.2394 30.8611 20.2394 41.0071C25.6163 41.7587 30.0293 44.4204 33.4786 48.9924C36.928 53.5644 38.6526 58.8565 38.6526 64.869C38.6526 71.2572 36.9533 76.6433 33.5547 81.0274C30.1561 85.4115 25.9206 87.6035 20.8481 87.6035C15.1668 87.6035 10.2719 84.7539 6.16312 79.0546C2.05435 73.3553 0 66.4348 0 58.2929C0 33.8672 11.0073 14.7654 33.0221 0.986816L38.957 14.5148Z" fill="#2EC5CE"/>
</g>
</svg>
