<svg width="442" height="439" viewBox="0 0 442 439" fill="none" xmlns="http://www.w3.org/2000/svg">
<path fill-rule="evenodd" clip-rule="evenodd" d="M327.391 119.404C349.206 141.914 366.582 167.54 375.318 197.098C384.318 227.548 390.777 261.084 377.404 288.62C364.33 315.541 331.404 323.335 306.176 339.466C279.376 356.602 258.018 386.06 225.307 385.873C191.624 385.68 159.828 363.798 136.341 338.493C114.386 314.839 102.936 283.318 101.086 252.037C99.4507 224.396 121.765 203.705 126.779 176.844C133.749 139.511 108.95 91.4812 135.913 65.4813C161.985 40.3406 208.601 52.4587 245.108 62.7397C277.632 71.8987 303.625 94.8807 327.391 119.404Z" fill="url(#paint0_linear)"/>
<defs>
<linearGradient id="paint0_linear" x1="388" y1="259" x2="120" y2="143" gradientUnits="userSpaceOnUse">
<stop stop-color="#8646EF"/>
<stop offset="1" stop-color="#59A4D5"/>
</linearGradient>
</defs>
</svg>
